<?xml version="1.0" encoding="utf-8"?>
<!-- Generator: Adobe Illustrator 28.2.0, SVG Export Plug-In . SVG Version: 6.00 Build 0)  -->
<svg version="1.1" xmlns="http://www.w3.org/2000/svg" xmlns:xlink="http://www.w3.org/1999/xlink" x="0px" y="0px"
	 viewBox="0 0 756.52 327.36" style="enable-background:new 0 0 756.52 327.36;" xml:space="preserve">
<g id="Text">
</g>
<g id="reg">
</g>
<g id="Layer_4">
	<g>
		<path d="M725.57,171.04c0.01-0.46,0.02-0.91,0.02-1.37c0-25.83-14.38-46.77-32.12-46.77c-3.8,0-7.45,0.97-10.84,2.74
			c-4.74-6.1-10.72-10.2-17.32-11.38c-5.82-8.52-13.87-13.79-22.77-13.79c-1.55,0-3.08,0.17-4.57,0.48
			c-3.39-10.19-9.25-18.32-16.45-22.73c-2.98-17.82-11.96-30.78-22.59-30.78c-5.62,0-10.79,3.64-14.85,9.7
			c-5.56-6.73-12.71-10.77-20.5-10.77c-3.56,0-6.97,0.85-10.17,2.41c-0.44-25.27-14.64-45.56-32.1-45.56
			c-7.34,0-14.09,3.59-19.5,9.62C497.54,9.74,492.72,8,487.61,8c-7.07,0-13.59,3.33-18.9,8.96c-4.04-2.67-8.52-4.17-13.25-4.17
			c-9.19,0-17.47,5.63-23.32,14.63c-5.5-9.44-13.52-15.67-22.55-16.45C398.18,4.08,384.01,0,368.66,0
			c-35.33,0-64.4,21.63-68.08,49.4c-4.72-3.97-10.19-6.25-16.03-6.25c-11.61,0-21.79,8.98-27.43,22.43
			c-5.73-12.78-15.64-21.23-26.9-21.23c-11.97,0-22.41,9.54-27.93,23.69c-5.85-11.48-15.23-18.93-25.8-18.93
			c-6.85,0-13.19,3.13-18.4,8.44c-3.43-1.82-7.14-2.82-11.01-2.82c-8.32,0-15.91,4.61-21.61,12.18c-9.57,0.36-18.47,2.9-26.01,7.05
			c-5.31-15.15-16.13-25.53-28.61-25.53c-10.66,0-20.1,7.56-25.94,19.2c-0.5-0.03-1-0.06-1.5-0.06c-12.75,0-23.76,10.82-28.95,26.49
			C5.75,102.43,0,116.8,0,133.14c0,25.58,14.1,46.35,31.6,46.75c5.89,10.17,14.7,16.64,24.56,16.64c6.34,0,12.24-2.68,17.22-7.3
			c5.83,8.66,13.95,14.04,22.94,14.04c8.67,0,16.53-5.01,22.31-13.14c5.85,8.88,14.07,14.42,23.18,14.42c3.02,0,5.95-0.62,8.72-1.76
			c1.99,0.56,4.05,0.87,6.15,0.87c10.92,0,20.55-7.94,26.36-20.06c5.38,7.15,12.43,11.66,20.19,12.17
			c3.31,20.7,16.05,36.12,31.27,36.12c5.12,0,9.95-1.75,14.25-4.85c5.89,9.79,14.53,15.99,24.17,15.99
			c8.78,0,16.73-5.13,22.52-13.44c1,0.83,2.03,1.65,3.07,2.46c-0.19,2.05-0.3,4.14-0.3,6.27c0,25.83,14.38,46.77,32.12,46.77
			c3.76,0,7.36-0.95,10.71-2.67c3.02,21.27,15.95,37.26,31.45,37.26c2.29,0,4.52-0.35,6.68-1.02c4.23,2.99,8.98,4.67,14,4.67
			c8.18,0,15.65-4.46,21.32-11.8c5.89,9.71,14.49,15.83,24.08,15.83c11.22,0,21.1-8.39,26.84-21.09
			c5.74,12.7,15.62,21.09,26.84,21.09c10.18,0,19.25-6.91,25.14-17.67c5.88,10.77,14.95,17.67,25.14,17.67
			c8.44,0,16.11-4.74,21.84-12.49c5.72,7.63,13.33,12.29,21.69,12.29c14.89,0,27.42-14.77,31.05-34.79
			c7.25-0.24,13.89-3.98,19.19-10.1c8.01-2.38,14.93-9.11,19.56-18.41c4.14,2.84,8.77,4.43,13.65,4.43
			c12.18,0,22.78-9.88,28.23-24.44c5.77,12.48,15.56,20.7,26.67,20.7c17.74,0,32.12-20.94,32.12-46.77
			C756.52,192.51,742.76,171.94,725.57,171.04z"/>
	</g>
</g>
</svg>
