<?xml version="1.0" encoding="utf-8"?>
<!-- Generator: Adobe Illustrator 28.2.0, SVG Export Plug-In . SVG Version: 6.00 Build 0)  -->
<svg version="1.1" xmlns="http://www.w3.org/2000/svg" xmlns:xlink="http://www.w3.org/1999/xlink" x="0px" y="0px"
	 viewBox="0 0 455.76 348.42" style="enable-background:new 0 0 455.76 348.42;" xml:space="preserve">
<g id="Text">
</g>
<g id="reg">
</g>
<g id="Layer_4">
	<g>
		<path d="M428.39,167.48c15.87-6.01,27.37-23.69,27.37-44.58c0-25.83-17.59-46.77-39.29-46.77c-11.24,0-21.36,5.63-28.53,14.63
			c-6.73-9.44-16.54-15.67-27.59-16.45c-13.97-6.89-31.3-10.97-50.07-10.97c-13.39,0-26.04,2.09-37.27,5.78
			c-5.45-3.81-11.73-6.1-18.44-6.39c0.01-0.46,0.03-0.91,0.03-1.37c0-25.83-17.59-46.77-39.29-46.77c-6.38,0-12.41,1.82-17.73,5.04
			C190.48,7.75,178.81,0,165.62,0c-21.65,0-39.21,20.85-39.28,46.6c-10.52,1.33-19.8,7.61-26.17,16.85
			c-5.93-4.27-12.88-6.73-20.31-6.73c-8.37,0-16.13,3.13-22.5,8.44c-4.2-1.82-8.73-2.82-13.46-2.82c-21.7,0-39.29,20.94-39.29,46.77
			c0,8.86,2.08,17.13,5.68,24.19C3.9,141.62,0,152.69,0,164.85c0,14.9,5.86,28.16,14.98,36.73c-2.09,5.72-3.26,12.02-3.26,18.65
			C11.72,246.06,29.31,267,51,267c10.03,0,19.18-4.48,26.12-11.85c4.97,2.7,10.48,4.22,16.3,4.22c2.93,0,5.79-0.4,8.54-1.12
			c1.94,0.46,3.94,0.75,5.97,0.86c4.05,20.7,19.63,36.12,38.25,36.12c6.26,0,12.17-1.75,17.43-4.85
			c7.2,9.79,17.77,15.99,29.56,15.99c10.82,0,20.62-5.21,27.72-13.64c1.17,0.82,2.38,1.57,3.63,2.24c-0.26,2.19-0.41,4.42-0.41,6.69
			c0,25.83,17.59,46.77,39.29,46.77s39.29-20.94,39.29-46.77c0-2.25-0.14-4.46-0.4-6.63c13.82-5.51,24.21-19.89,26.39-37.47
			c6.96,13.09,19.23,21.78,33.2,21.78c1.42,0,2.82-0.09,4.2-0.27c6.51,15.13,19.72,25.5,34.98,25.5c21.7,0,39.29-20.94,39.29-46.77
			c0-5.25-0.74-10.3-2.08-15.02c7.3-8.49,11.85-20.34,11.85-33.46C450.12,191.01,441.27,175.16,428.39,167.48z"/>
	</g>
</g>
</svg>
