<?xml version="1.0" encoding="utf-8"?>
<!-- Generator: Adobe Illustrator 28.2.0, SVG Export Plug-In . SVG Version: 6.00 Build 0)  -->
<svg version="1.1" xmlns="http://www.w3.org/2000/svg" xmlns:xlink="http://www.w3.org/1999/xlink" x="0px" y="0px"
	 viewBox="0 0 469.57 234.1" style="enable-background:new 0 0 469.57 234.1;" xml:space="preserve">
<g id="Text">
</g>
<g id="reg">
</g>
<g id="Layer_4">
	<g>
		<path d="M446.16,116.17c1.73-2.11,3.26-4.4,4.53-6.9c11.67-22.97-2.01-53.36-30.56-67.87c-27.02-13.73-57.67-8.31-70.77,11.78
			c-1.08-0.62-2.18-1.23-3.3-1.8c-27.65-14.05-59.1-8.06-71.67,13.19c-3.68-0.54-7.33-0.76-10.89-0.67
			c-2.08-17.49-14.7-35.08-34.42-45.1c-16.54-8.4-34.43-9.63-48.83-4.71c-3.21-2.4-6.7-4.59-10.45-6.49
			c-25.02-12.71-53.15-9.02-67.58,7.54c-11.89-1.74-23.42-0.12-32.88,4.52c-26.5-9.8-54.52-2.26-65.16,18.68
			C-7.51,61.32,6.18,91.7,34.73,106.21c4.68,2.38,9.46,4.17,14.24,5.42c-0.7,2.99-1.03,6.06-1.03,9.15
			c-9.32,3.76-16.96,10.22-21.48,19.1c-11.67,22.97,2.01,53.36,30.56,67.87c11.34,5.77,23.33,8.15,34.39,7.49
			c4.64,4.32,10.06,8.15,16.16,11.25c28.55,14.51,61.16,7.65,72.84-15.32c4.01-7.9,5.03-16.67,3.48-25.38
			c11.65,3.26,23.33,3.24,33.48,0.29c4.68,14.26,16.1,27.67,32.36,35.93c28.55,14.51,61.16,7.65,72.84-15.32
			c2.2-4.34,3.5-8.93,3.97-13.64c3.84-1.03,7.47-2.48,10.81-4.32c5.59,6.53,12.77,12.27,21.28,16.6
			c23.97,12.18,50.79,9.3,65.69-5.53c17.87-0.27,33.69-8.34,41.09-22.91C475.41,157.21,466.79,132.09,446.16,116.17z"/>
	</g>
</g>
</svg>
