<?xml version="1.0" encoding="utf-8"?>
<!-- Generator: Adobe Illustrator 28.2.0, SVG Export Plug-In . SVG Version: 6.00 Build 0)  -->
<svg version="1.1" id="Layer_1" xmlns="http://www.w3.org/2000/svg" xmlns:xlink="http://www.w3.org/1999/xlink" x="0px" y="0px"
	 viewBox="0 0 3471.2 791.8" style="enable-background:new 0 0 3471.2 791.8;" xml:space="preserve">
<g id="Text">
</g>
<g id="reg">
</g>
<g>
	<path d="M1195.3,504.1c3.6,1.4,7.5,2.1,11.5,2.1c9.6,0,19-0.9,28.5-2.2c9.5-1.3,18.8-2.9,28-5.3c7.9-2.1,15.6-4.8,23.1-7.9
		c10-4.1,19.9-8.5,29.4-13.8c7.1-4.1,14-8.6,20.6-13.5c8.6-6.5,17-13.1,24.6-20.6c5.9-5.7,11.3-11.9,16.4-18.4
		c7.1-9.1,14-18.3,19.2-28.6c3.2-6.4,6.1-13,8.5-19.8c1.5-4.2,2.7-8.6,3.5-13c0.9-4.8,1.5-9.6,2-14.4c0.2-2,0.3-4,0.3-6
		c0.1-6.8-0.9-13.6-2-20.3c-0.7-4-1.7-7.9-3.1-11.7c-2.4-6.2-4.9-12.6-8.6-18.1c-2.5-3.9-5.4-7.5-8.4-11c-1.3-1.5-2.6-3-4.1-4.3
		c-3.4-3.2-7.2-6-11-8.7c-1.6-1.1-3.2-2.2-4.9-3.2c-5.7-3.3-11.9-5.8-18.1-7.9c-3.8-1.3-7.7-2.3-11.7-2.9
		c-10.8-1.8-21.5-2.9-32.4-1.8c-6.8,0.7-13.6,1.6-20.3,3c-0.1-2.8-0.8-5.4-2.2-7.8c-1.3-4-3.6-7.5-6.7-10.5
		c-2.2-1.7-4.4-3.4-6.6-5.1c-2.6-1.1-5.2-2.2-7.8-3.3c-4.3-1.4-8.6-1.5-13-0.6c-4.3,0.2-8.4,1.5-12.1,3.9
		c-18.1,13.2-36.5,26.3-56.9,35.6c-7.4,2.9-15.1,5.1-22.9,6.5c-3.4,0.3-6.8,0.4-10.2,0.4c-4.5-0.2-8.6,0.8-12.5,2.8
		c-4,1.3-7.5,3.6-10.5,6.7c-3.2,2.9-5.4,6.4-6.7,10.5c-2,3.9-3,8-2.8,12.5c0.4,8.4,3.1,17.1,9.5,23c6.4,5.9,14.1,9.4,23,9.5
		c10.3,0.1,20.8-1.2,30.8-3.3c0.6-0.1,1.2-0.3,1.8-0.4c-7.6,17.9-14.6,35.9-21,54.2c-0.1,0.4-0.3,0.8-0.4,1.3
		c-4.2-4.9-9.6-8.8-16-10.3c-2.9-0.4-5.8-0.8-8.6-1.2c-5.9,0-11.3,1.5-16.4,4.4c-25.4,13.2-50.7,26.3-76.1,39.5
		c-19.8,10.3-39.6,20.5-59.4,30.8c4.7-19,10.4-37.7,17-56.2c3.2-8.7,6.5-17.4,10.1-26c9.3-21.7,19.8-42.9,31.4-63.5
		c12.2-21.8,25.6-43,39.9-63.5c7.3-10.5,14.9-20.8,22.7-31c14.3-18.3,29.4-36.1,45-53.4c1.7-2.2,3.4-4.4,5.1-6.6
		c1.1-2.6,2.2-5.2,3.3-7.8c0.4-2.9,0.8-5.8,1.2-8.6c0.2-4.5-0.8-8.6-2.8-12.5c-0.8-2.8-2.2-5.1-4.2-7.2c-1.4-2.4-3.4-4.4-5.8-5.8
		c-2-2-4.4-3.4-7.2-4.2c-3.9-2-8-3-12.5-2.8c-26.8-2.4-53.6-4.8-80.4-7.2c-7.7-0.7-15.3-1.4-23-2.1c-4.5-0.2-8.6,0.8-12.5,2.8
		c-4,1.3-7.5,3.6-10.5,6.7c-3.2,2.9-5.4,6.4-6.7,10.5c-2,3.9-3,8-2.8,12.5c0.4,8.4,3.1,17.1,9.5,23c2.2,1.7,4.4,3.4,6.6,5.1
		c5.1,2.9,10.5,4.4,16.4,4.4c12.8,1.2,25.5,2.3,38.3,3.5c-5.5,7-11,14-16.3,21.1c-16.9,22.4-32.8,45.6-47.3,69.6
		c-14.4,23.8-27.5,48.4-38.9,73.7c-12.5,27.7-23.5,56-32.1,85.1c-6.1,20.7-10.7,41.6-14.2,62.8c-0.5-13.7-0.5-27.3-0.2-41
		c0.8-29.3,3.3-58.6,6.5-87.7c0.7-3.3,1.5-6.6,2.2-10c8.4-39.9,13.9-80.4,19-120.8c1.1-9.1,2.2-18.1,3.3-27.2
		c0-5.9-1.5-11.3-4.4-16.4c-2-3.8-4.8-6.8-8.4-9.1c-3.1-2.9-6.8-4.8-11.1-5.8c-5.7-1.5-11.5-1.5-17.2,0c-23.7,2.9-47.7,3.4-71.5,1.7
		c-5.4-0.4-10.9-0.9-16.3-1.6c-17.2-2.5-34.3-6.2-51-11.2c-4.3-1.4-8.6-1.5-13-0.6c-4.3,0.2-8.4,1.5-12.1,3.9
		c-3.8,2-6.8,4.8-9.1,8.4c-2.9,3.1-4.8,6.8-5.8,11.1c-1.9,8.3-1.5,17.7,3.3,25c4.6,7.2,11.1,12.5,19.4,14.9
		c22.6,6.7,45.7,10.8,69,13.6c19.5,2.3,39.1,3,58.7,2.2c-0.4,3.1-0.8,6.1-1.2,9.2c-1.8,13.3-3.8,26.7-5.9,40
		c-5.9-5.8-12.7-10.8-20.2-14.6c-9.9-5-20.5-9.1-31.4-11c-11-1.9-22-3-33.1-2c-11.1,1-22.3,2.8-32.9,6.2c-10.6,3.5-21,8-30.7,13.5
		c-7.1,4.1-13.9,8.9-20.3,14c0.2-5.7,0.1-11.4-0.4-17.1c-2.6-33.2-12.4-66.1-30.7-94.2c-9.1-13.8-19.8-27-32.3-37.8
		c-10.8-9.3-22.4-17.3-34.8-24.2c-31.6-17.6-67.2-29.1-103.6-29c-33.4,0.1-65.8,9.8-95.1,25.5c-29,15.5-55,37.2-78,60.6
		c-25.7,26.1-48.4,55.2-69.6,84.9c-20.9,29.2-40.1,59.4-58.8,90c-18.1,29.6-35.7,59.6-53.6,89.4c-15.8,26.2-31.8,52.3-49.6,77.3
		c-3.1,4.3-6.2,8.6-9.4,12.8c-7.9,10-16.3,19.6-25.7,28.2c-1.6,1.4-3.2,2.8-4.8,4.1c-3.3,2.4-6.8,4.5-10.5,6.4
		c-1.4,0.5-2.8,0.9-4.2,1.2c-1.3,0-2.6,0-3.9-0.1c-8-0.6-17.5,4-23,9.5c-5.6,5.6-9.9,14.9-9.5,23c0.4,8.4,3.1,17.1,9.5,23
		c6.6,6.1,14,8.9,23,9.5c13.5,1,26.1-3.3,38.2-8.7c10.7-4.8,20.2-12.4,28.9-20c8.5-7.4,16.1-15.7,23.3-24.4
		c10.2-12.3,19.8-25.2,28.9-38.3c18.2-26.2,34.7-53.6,51.1-80.9c18.6-31.1,37-62.3,56.1-93.1c19.4-31.2,39.5-61.9,61.4-91.3
		c2.1-2.7,4.1-5.5,6.2-8.2c18.2-23.2,37.8-45.5,59.8-65.2c5.1-4.6,10.4-9.1,15.8-13.4C415.9,171,430.4,162,446,155
		c11.1-4.4,22.7-7.7,34.5-9.6c10.5-1.1,21-1.1,31.5,0c12.7,2.1,25.1,5.7,37,10.4c13,5.8,25.6,12.7,37.1,21.1
		c7.2,6,13.8,12.6,19.7,19.8c6.4,8.9,11.9,18.3,16.5,28.3c4.4,11.2,7.6,22.9,9.5,34.8c1.3,12.2,1.2,24.4-0.1,36.5
		c-2.6,15.9-7,31.4-13,46.4c-8.9,20-20.3,38.7-33.5,56.2c-14,17.7-29.7,34.5-47.3,48.7c-8.2,6.1-17,11.5-26.3,15.8
		c-6.3,2.4-12.7,4.1-19.2,5.3c-5.4,0.5-10.9,0.5-16.3,0.1c-4-0.8-7.9-1.8-11.8-3.2c-1-0.5-2-1-3-1.5c4.6-18.1,9.1-36.3,13.6-54.5
		c7.2-29.2,14.2-58.4,21-87.6c6.8-29.2,13.5-58.5,20.1-87.8c0.6-2.9,1.3-5.7,1.9-8.6c0.8-2.2,1.3-4.6,1.4-7c1-4.3,0.8-8.6-0.6-13
		c-0.9-3.8-2.6-7.1-5-10.1c-0.5-0.7-1.1-1.4-1.6-2.1c-2.2-3-5-5.4-8.3-7.2c-0.4-0.2-0.9-0.4-1.3-0.6c-1.7-1-3.5-1.7-5.4-2.3
		c-0.3-0.1-0.7-0.3-1-0.4c-5.3-1.4-10.6-1.5-15.8-0.3c-3.3,0.7-6.5,1.8-9.4,3.7c-0.4,0.3-0.8,0.5-1.2,0.8c-2,1.3-3.8,2.8-5.4,4.5
		c-3.2,3.2-5.9,7-7.4,11.2c-6.6,12.1-14,23.9-22,35.2c-1.7,2.3-3.4,4.6-5.1,6.9c-13.5,17-28.5,32.8-44.8,47
		c-4.4,3.8-8.9,7.5-13.4,11c-4.1,3.1-8.4,6.1-12.9,8.4c-1.3,0.4-2.7,0.8-4.1,1c-4.2,1-7.9,2.9-11.1,5.8c-3.5,2.3-6.3,5.3-8.4,9.1
		c-2.4,3.7-3.7,7.8-3.9,12.1c-1,4.3-0.8,8.6,0.6,13c1.1,2.6,2.2,5.2,3.3,7.8c2.9,4.9,6.8,8.8,11.7,11.7c2.6,1.1,5.2,2.2,7.8,3.3
		c5.8,1.5,11.5,1.5,17.3,0c5.7-1.1,11.1-3.6,16.4-6c2.8-1.2,5.4-2.7,8-4.4c7.4-4.7,14.2-10.3,21.1-15.6c2.4-1.9,4.7-3.7,7.1-5.7
		c-3,12.6-6,25.2-9.1,37.8c-7.1,29.2-14.4,58.3-21.8,87.4c-7.4,29.1-15,58.2-22.7,87.2c-7.7,29-15.6,58-23.7,86.9
		c-1,3.7-2.1,7.4-3.1,11.1c-1.9,6.8-1.3,14.7,1.5,21.4c-16.4,7.1-32.7,14.3-49.1,21.4c-5.5,2.4-11,4.8-16.5,7.2
		c-3.8,2-6.8,4.8-9.1,8.4c-2.9,3.1-4.8,6.8-5.8,11.1c-0.4,2.9-0.8,5.8-1.2,8.6c-0.2,4.5,0.8,8.6,2.8,12.5c0.8,2.8,2.2,5.1,4.2,7.2
		c2.3,3.5,5.3,6.3,9.1,8.4c2.6,1.1,5.2,2.2,7.8,3.3c5.8,1.5,11.5,1.5,17.3,0c22.4-7,44.8-14,67.2-21.1c22.4-7,44.8-14,67.2-21.1
		c12.5-3.9,25.1-7.9,37.6-11.8c4.2-1,7.9-2.9,11.1-5.8c3.5-2.3,6.3-5.3,8.4-9.1c2.4-3.7,3.7-7.8,3.9-12.1c1-4.3,0.8-8.6-0.6-13
		c-1.1-2.6-2.2-5.2-3.3-7.8c-2.9-4.9-6.8-8.8-11.7-11.7c-2.6-1.1-5.2-2.2-7.8-3.3c-5.8-1.5-11.5-1.5-17.3,0
		c-16.9,5.3-33.7,10.6-50.6,15.9c7.2-26.1,14.4-52.2,21.4-78.3c5-18.8,10-37.6,14.9-56.5c12,4.2,24.7,6.2,37.2,6.4
		c10.3,0.2,20.8-1.2,30.8-3.3c10.2-2.2,19.7-6.1,29.2-10.2c17.1-7.5,32.3-18.8,46.4-30.9c11-9.4,21.2-19.9,30.8-30.8
		c-1,12-1.3,24,0,35.9c1.3,12.8,3.2,25.6,7.8,37.7c4,10.5,8.6,20.7,15.2,29.8c3.9,5.3,8,10.7,12.6,15.4c4.8,4.9,10.2,9,15.6,13
		c3.4,2.5,6.9,4.7,10.7,6.5c6.1,2.9,12.4,5.7,19,7.4c6.7,1.8,13.7,2.6,20.6,3c7.2,0.4,14.2-0.7,21.2-1.7
		c11.4-1.7,22.3-6.2,32.5-11.3c10.4-5.2,19.7-12.4,28.7-19.8c7.3-6,14-12.7,20.2-19.9c9.7-11.2,18.6-23.2,26.8-35.6
		c0.7,5.7,1.4,11.5,2.2,17.2c1,6.8,2.1,13.5,3.4,20.2c-0.3,0.2-0.6,0.4-1,0.6c-3.8,2-6.8,4.8-9.1,8.4c-2.9,3.1-4.8,6.8-5.8,11.1
		c-0.4,2.9-0.8,5.8-1.2,8.6c0,5.9,1.5,11.3,4.4,16.4c1.7,2.2,3.4,4.4,5.1,6.6c4.1,4,8.8,6.8,14.3,8.4c23.6,6.1,47.3,12.2,70.9,18.3
		c4.3,1.4,8.6,1.5,13,0.6c4.3-0.2,8.4-1.5,12.1-3.9c3.8-2,6.8-4.8,9.1-8.4c2.9-3.1,4.8-6.8,5.8-11.1c0.4-2.9,0.8-5.8,1.2-8.6
		c0-5.9-1.5-11.3-4.4-16.4c-1.7-2.2-3.4-4.4-5.1-6.6c-4.1-4-8.8-6.8-14.3-8.4c-8.8-2.3-17.5-4.5-26.3-6.8
		c-2.4-8.9-4.4-17.8-6.1-26.8c1.4,1.2,2.9,2.2,4.5,3.2c5.1,2.9,10.5,4.4,16.4,4.4c5.9,0,11.3-1.5,16.4-4.4
		c25.4-13.2,50.7-26.3,76.1-39.5c25.4-13.2,50.7-26.3,76.1-39.5c11.6-6,23.2-12,34.8-18c-1.7,6.2-3.3,12.4-4.8,18.7
		c-6.1,24.8-11,49.8-14.7,75c-4.1,27.9-7.2,55.9-8.6,84.1c-0.2,3.2-0.3,6.4-0.4,9.6c0,5.9,1.5,11.3,4.4,16.4c2,3.8,4.8,6.8,8.4,9.1
		c3.1,2.9,6.8,4.8,11.1,5.8c5.8,1.5,11.5,1.5,17.3,0c10.8-2.6,21.8-4.9,32.7-7.2c8.7-1.8,17.4-3.8,25.9-6.4
		c11.6-3.5,22.8-8.2,33.7-13.5c11.7-5.7,22.9-12.4,33.9-19.4c16.6-10.6,32.7-21.9,48.7-33.3c2.6-1.8,5.1-3.7,7.7-5.5
		c3.8-2,6.8-4.8,9.1-8.4c2.9-3.1,4.8-6.8,5.8-11.1c1.4-4.3,1.5-8.6,0.6-13c-0.2-4.3-1.5-8.4-3.9-12.1c-4.5-6.9-11.1-13-19.4-14.9
		c-2.9-0.4-5.8-0.8-8.6-1.2c-5.9,0-11.3,1.5-16.4,4.4c-16.4,11.9-33,23.6-49.9,34.6c-11.2,7.3-22.6,14.4-34.5,20.6
		c-3.7,2-7.5,3.8-11.4,5.5c-7.3,2.9-14.8,5.2-22.4,7.1c-1.7,0.4-3.3,0.8-5,1.2c0.9-9.9,2-19.8,3.3-29.7
		C1187.9,542.4,1191.2,523.2,1195.3,504.1z M792.4,489.4c-3.1,4.5-6.2,9-9.5,13.3c-7.8,9.7-16.4,18.8-26,26.7
		c-5.3,3.8-10.9,7.3-16.9,10.1c-3.7,1.3-7.4,2.4-11.2,3.2c-2.7,0.2-5.5,0.2-8.2,0c-2.5-0.5-4.9-1.2-7.3-2c-2.6-1.3-5.2-2.8-7.6-4.5
		c-3-2.6-5.9-5.5-8.5-8.6c-2.9-4.2-5.4-8.5-7.6-13.1c-2.4-6.5-4.1-13.2-5.2-20c-1.5-14.9-0.7-30,1.1-44.9c3.3-22.8,8.6-45.5,17.1-67
		c5.2-11.7,11.5-23,19.1-33.3c5.4-6.6,11.4-12.6,17.9-18.1c6.6-4.7,13.5-8.8,20.9-12.2c6.8-2.6,13.8-4.6,21-5.9
		c5.7-0.5,11.4-0.6,17.1-0.1c4.7,0.9,9.2,2.1,13.7,3.7c2.5,1.2,5,2.6,7.3,4.1c0.8,0.8,1.7,1.6,2.4,2.4c0.3,0.5,0.6,1,0.9,1.5
		c0.3,1,0.6,2,0.8,3.1c0.1,2.3,0.1,4.6-0.1,7c-1.1,5.5-2.7,10.9-4.7,16.1c-5.2,11.4-11.7,22.2-19.1,32.2
		c-8.7,10.8-18.5,20.6-29.3,29.3c-7.1,5.2-14.5,9.9-22.2,14.1c-3.8,2-6.8,4.8-9.1,8.4c-2.9,3.1-4.8,6.8-5.8,11.1
		c-1.4,4.3-1.5,8.6-0.6,13c0.2,4.3,1.5,8.4,3.9,12.1c4.5,6.9,11.1,13,19.4,14.9c8.7,2,17.1,1,25-3.3c8.1-4.4,15.8-9.3,23.2-14.8
		c0.8-0.6,1.6-1.2,2.5-1.8C802.3,474.1,797.5,481.8,792.4,489.4z M1323.6,317.6c3.3,0.6,6.6,1.5,9.7,2.6c1.7,0.9,3.4,1.8,5,2.9
		c1,0.9,2,1.9,2.9,2.9c0.9,1.4,1.7,2.8,2.5,4.3c0.8,2.4,1.4,4.8,1.9,7.2c0.2,3.1,0.2,6.2,0,9.3c-0.9,4.6-2.2,9.1-3.8,13.5
		c-3.5,7.5-7.9,14.5-12.8,21.2c-8,9.9-17.1,18.9-27,26.9c-11,8.1-22.9,15.1-35.4,20.7c-12.8,5.1-26.2,8.8-39.8,11
		c-5.1,0.6-10.2,0.9-15.3,1c3.9-13,8.1-25.9,12.7-38.8c1-2.7,1.9-5.4,2.9-8c3.4-3.8,5.8-8.1,7.1-13c0.9-3.4,2-6.7,3.2-9.9
		c3.1-6.7,6.9-13.1,11.2-19.1c5-6.1,10.7-11.7,16.7-16.7c6.4-4.6,13.2-8.6,20.3-11.9c6.8-2.6,13.9-4.6,21.1-5.8
		C1312.4,317.2,1318,317.2,1323.6,317.6z"/>
	<path d="M3470.6,518c-0.2-4.3-1.5-8.4-3.9-12.1c-4.5-6.9-11.1-13-19.4-14.9c-8.4-1.9-17.6-1.4-25,3.3
		c-25.8,16.3-51.5,32.5-77.3,48.8c-25.6,16.2-51.3,32.4-76.9,48.6c-6.3,4-12.7,8-19,12c1.1-16.2,2.5-32.4,4.3-48.5
		c0.8-7.2,1.7-14.3,2.6-21.5c1.7-12.1,3.5-24.1,5.5-36.1c0.6,0.1,1.3,0.2,1.9,0.3c5,0.7,10.1,1.7,15.2,1.5c1.1,0,2.2-0.1,3.3-0.3
		c4-0.5,8-0.9,11.9-1.7c2.4-0.5,4.7-1.1,6.9-1.9c4.8-1.6,9.4-3.7,14-5.7c2.3-1,4.5-2.1,6.7-3.3c4.3-2.3,8.4-5,12.4-7.7
		c17.5-12.2,34.2-25.7,49.4-40.6c15.2-15,28.9-31.5,41.4-48.7c5.5-7.6,10.7-15.4,15.5-23.4c5-8.3,9.9-16.8,13.8-25.8
		c3-7.1,6.2-14.2,7.8-21.8c0.2-1.2,0.4-2.3,0.6-3.5c0.6-4,1.2-8.1,1.5-12.2c0.2-2.3,0.2-4.6,0-6.9c-0.6-6.6-1.4-13.6-3.7-19.9
		c-1.6-4.3-3.4-8.6-5.5-12.7c-0.9-1.8-1.9-3.5-3-5.2c-3.7-5.5-7.8-10.9-12.6-15.5c-3.4-3.2-7.2-6-10.9-8.8c-1.6-1.2-3.2-2.3-4.9-3.4
		c-1.7-1.1-3.5-2.1-5.3-2.9c-4.2-2-8.6-3.9-13-5.5c-6.7-2.4-13.7-3.1-20.7-4c-4.6-0.6-9.3-0.6-13.9-0.2c-5.1,0.4-10.1,1.1-15.2,2
		c-2.2,0.4-4.5,0.9-6.6,1.5c-7.1,1.9-14,4.9-20.6,8c-2.1,1-4.2,2.1-6.3,3.2c0.1-4.3-0.9-8.3-2.8-12c-0.8-2.8-2.2-5.1-4.2-7.2
		c-2.3-3.5-5.3-6.3-9.1-8.4c-2.6-1.1-5.2-2.2-7.8-3.3c-2.9-0.4-5.8-0.8-8.6-1.2c-4.5-0.2-8.6,0.8-12.5,2.8c-4,1.3-7.5,3.6-10.5,6.7
		c-11.5,13.9-23.8,27.2-36.8,39.7c-0.3-0.7-0.6-1.4-0.9-2.2c-3.2-7.7-6.4-15.3-10.8-22.4c-1.4-2.3-3-4.6-4.6-6.8
		c-3.2-4.3-6.5-8.6-10-12.6c-5.5-6.1-11.9-11.1-18.5-16c-6.6-4.8-13.8-7.9-21.4-11c-8-3.3-16.2-4.4-24.9-5.4c-8.6-1-17,0.1-25.5,1.4
		c-5.9,0.8-11.7,2.3-17.3,4.5c-8,3-16,6.4-23.3,10.9c-1.5,0.9-3,1.9-4.5,2.9c2-7,4-14.1,6-21.1c0.4-2.9,0.8-5.8,1.2-8.6
		c-0.4-2.9-0.8-5.8-1.2-8.6c-1.1-2.6-2.2-5.2-3.3-7.8c-2-3.8-4.8-6.8-8.4-9.1c-2-2-4.4-3.4-7.2-4.2c-2.5-1.5-5.3-2.2-8.2-2.2
		c-2.9-0.8-5.8-0.8-8.6,0c-4.3,0.2-8.4,1.5-12.1,3.9c-5,2.7-10.1,5.2-15.3,7.5c-16.2,6.4-33,11-50.2,13.7c-17.2,2-34.5,2-51.6,0.1
		c-0.7-0.1-1.5-0.2-2.2-0.3c-4.3-1.4-8.6-1.5-13-0.6c-4.3,0.2-8.4,1.5-12.1,3.9c-6.7,3.9-13.2,11.7-14.9,19.4
		c-1.9,8.3-1.5,17.7,3.3,25c4.3,6.7,11.2,13.6,19.4,14.9c22.2,3.6,44.4,5.2,66.8,3.1c12.8-1.2,25.6-3.1,38.1-6
		c-9.9,38.9-18.4,78.1-25.5,117.5c-0.2,1.3-0.4,2.5-0.7,3.8c-0.6,1.2-1.3,2.4-1.9,3.6c-2.4,3.7-3.7,7.8-3.9,12.1
		c-1,4.3-0.8,8.6,0.6,13c0.1,0.3,0.1,0.5,0.2,0.7c-3.3,20.6-6.3,41.3-8.9,62.1c-0.8-1.8-1.7-3.6-2.6-5.4c-3.6-6.9-8.5-13.2-13.5-19
		c-5.1-5.9-11.3-10.6-17.6-15.3c-4.1-3.1-8.5-5.7-13.1-7.9c-7.1-3.4-14.4-6.5-22-8.5c-2.6-0.7-5.2-1.2-7.9-1.6
		c-5.2-0.8-10.5-1.6-15.7-2c-8-0.5-15.8,0.5-23.7,1.7c-5.1,0.7-10.1,1.9-15,3.7c-7.2,2.7-14.4,5.7-20.8,10c-3.8,2-6.8,4.8-9.1,8.4
		c-2.9,3.1-4.8,6.8-5.8,11.1c-1.4,4.3-1.5,8.6-0.6,13c0.2,4.3,1.5,8.4,3.9,12.1c4.5,6.9,11.1,13,19.4,14.9c2.9,0.4,5.8,0.8,8.6,1.2
		c5.9,0,11.3-1.5,16.4-4.4c2.2-1.5,4.6-2.8,7-4c2.9-1,5.9-1.8,9-2.4c3.9-0.3,7.8-0.3,11.7,0c4.3,0.8,8.4,2,12.5,3.4
		c3.5,1.7,6.8,3.6,10,5.8c2.3,2,4.5,4.2,6.6,6.5c1.5,2.3,2.9,4.6,4.1,7.1c1.3,3.6,2.3,7.3,3,11c0.4,5,0.3,10.1-0.1,15.1
		c-1.5,8.4-4,16.6-7.1,24.6c-6.7,14.8-15.3,28.7-25,41.7c-3.4,4.3-7.1,8.3-11.2,11.9c-1.5,1-3.1,2-4.8,2.8c-2.3,0.7-4.6,1.4-7,1.8
		c-5.6,0.4-11.2,0.2-16.8-0.3c-12.3-2-24.5-5.4-36.1-10c-9.1-4.2-17.9-9.2-26.1-15c-5.6-4.7-10.8-9.8-15.5-15.4
		c-3.6-5-6.7-10.4-9.3-16c-2.8-7.6-4.8-15.5-6.2-23.6c-2.1-19.8-0.7-39.9,1.3-59.7c0.5-4.6,1-9.2,1.6-13.8
		c3.7-25.8,9.2-51.4,17.6-76c2.1-6.2,4.4-12.3,6.8-18.3c7.7-17.4,17-34,28.3-49.3c1.6-2,3.2-4,4.9-5.9c3.2-2.9,5.4-6.4,6.7-10.5
		c2-3.9,3-8,2.8-12.5c-0.4-2.9-0.8-5.8-1.2-8.6c-1-4.2-2.9-7.9-5.8-11.1c-1.4-2.4-3.4-4.4-5.8-5.8c-3.1-2.9-6.8-4.8-11.1-5.8
		c-2.9-0.4-5.8-0.8-8.6-1.2c-5.9,0-11.3,1.5-16.4,4.4c-1.9,0.9-3.9,1.7-5.8,2.6c-22.5,9.3-45.6,16.9-69.3,22.6
		c-7,1.7-14.1,3.2-21.2,4.6c-0.2-3.6-1.1-6.9-2.8-10.1c-1.3-4-3.6-7.5-6.7-10.5c-2.9-3.2-6.4-5.4-10.5-6.7c-3.9-2-8-3-12.5-2.8
		c-2.9,0.4-5.8,0.8-8.6,1.2c-5.5,1.5-10.3,4.3-14.3,8.4c-1.7,2.2-3.4,4.4-5.1,6.6c-2.9,5.1-4.4,10.5-4.4,16.4
		c-2.3,25.7-2.8,51.6-1.5,77.4c0.3,6.5,0.8,12.9,1.3,19.4c-1.2-1.4-2.3-2.7-3.5-4.1c-11.9-14.1-23.7-28.4-35.7-42.5
		c-11.9-14.1-24.1-28.1-36.7-41.5c-13.6-14.5-27.9-28.3-42.5-41.8c-1.8-1.7-3.7-3.4-5.5-5.1c-2.2-1.7-4.4-3.4-6.6-5.1
		c-2.6-1.1-5.2-2.2-7.8-3.3c-2.9-0.4-5.8-0.8-8.6-1.2c-3-0.1-5.9,0.3-8.7,1.2c5.3-9.7,10.1-19.6,14.4-29.8
		c5.9-13.9,11.5-27.9,15.8-42.4c3.6-11.9,6.5-24,8.7-36.2c0.5-3,1-6.1,1.5-9.1c1.4-4.3,1.5-8.6,0.6-13c-0.2-4.3-1.5-8.4-3.9-12.1
		c-2-3.8-4.8-6.8-8.4-9.1c-3.1-2.9-6.8-4.8-11.1-5.8c-2.9-0.4-5.8-0.8-8.6-1.2c-5.9,0-11.3,1.5-16.4,4.4c-2.2,1.7-4.4,3.4-6.6,5.1
		c-4,4.1-6.8,8.8-8.4,14.3c-3.2,21.1-8.5,42-15.8,62.1c-1.5,4.1-3,8.1-4.6,12.1c-9,20.8-20.1,40.7-32.9,59.4
		c-2.8,4.1-5.7,8.1-8.7,12.1c-14.1,17.9-29.8,34.5-47,49.4c-4.1,3.5-8.3,7-12.5,10.3c-16.9,12.7-34.9,23.9-53.8,33.3
		c0.7-3.1,1.5-6.2,2.2-9.4c8.5-37.3,14.7-76,13.4-114.3c-0.2-4.6-0.4-9.1-0.8-13.7c0-5.9-1.5-11.3-4.4-16.4
		c-2.9-4.9-6.8-8.8-11.7-11.7c-9.6-5.6-23.2-6.3-32.8,0c-14.4,9.4-29.5,17.6-45.2,24.5c-16,6.5-32.6,11.7-49.5,15.4
		c-7.7,1.7-15.5,8.2-19.4,14.9c-4.1,7-5.8,17.2-3.3,25c2.5,7.9,7.4,15.5,14.9,19.4c8,4.2,16.2,5.2,25,3.3
		c18.4-4.1,36.3-9.8,53.6-17.1c2.4-1,4.8-2,7.1-3.1c-0.4,3.9-0.8,7.7-1.2,11.6c-4.3,29.8-11.5,59.1-19.4,88.2
		c-8.4,31.1-17,62.1-25.6,93.1c-12.6,45.6-25.2,91.3-37.9,136.9c-0.2-0.5-0.5-1.1-0.8-1.6c-1.3-4-3.6-7.5-6.7-10.5
		c-6.2-5.7-14.3-9.9-23-9.5c-2.9,0.4-5.8,0.8-8.6,1.2c-5.5,1.5-10.3,4.3-14.3,8.4c-27.4,24.2-55.6,47.5-84.2,70.2
		c-8.2,6.5-16.4,13-24.7,19.4c2.2-1.7,4.4-3.4,6.6-5.1c-8.6,6.6-17.2,13.4-26,19.9c0-0.6,0.1-1.2,0.1-1.8c1-16,2.4-32,4.2-48
		c0.9-8.4,1.9-16.7,3-25c4-28.9,8.9-57.7,14.8-86.2c4.5,2.3,9.4,3.4,14.5,3.4c7.5,0.9,15,1.2,22.6,0.9c3.8-0.1,7.5-0.4,11.3-0.8
		c6.5-0.7,13-1.6,19.4-2.8c7.4-1.4,14.7-3.4,21.7-5.9c9.5-3.4,19-7.5,27.8-12.5c8.8-5,16.9-11.2,24.6-17.7
		c6.4-5.4,12.1-11.6,17.5-18.1c7.1-8.6,14-17.6,20.5-26.7c4.8-6.7,9.4-13.6,12.8-21.1c2-4.3,3.9-8.6,5.5-13.1
		c0.7-1.8,1.3-3.7,1.8-5.6c0.9-3.3,1.3-6.6,1.7-9.9c0.4-3.2,1-6.5,1-9.8c0-4.7-0.9-9.5-1.5-14.1c-0.3-1.9-0.7-3.8-1.3-5.6
		c-0.3-0.8-0.6-1.7-0.9-2.5c-1.3-3.3-2.6-6.6-4.2-9.8c-0.7-1.4-1.5-2.8-2.3-4.1c-0.4-0.6-0.9-1.3-1.4-1.9c-2.1-2.8-4.2-5.6-6.4-8.3
		c-1-1.2-2.1-2.3-3.3-3.3c-3.2-2.9-6.7-5.4-10.1-7.9c-1.3-0.9-2.6-1.8-4-2.6c-5.1-3-10.8-5.3-16.4-7.4c-3.1-1.2-6.4-2.1-9.6-2.9
		c-9.6-2.1-19.5-3.2-29.3-2.8c-6.7,0.2-13.3,1.2-19.9,2.2c-3.9,0.6-7.7,1.3-11.5,2.3c-3.8,1-7.6,2.1-11.2,3.5
		c-1.4,0.5-2.9,1.1-4.3,1.6c3.2-6.2,6.7-12.3,10.3-18.3c1.1-2.6,2.2-5.2,3.3-7.8c1.4-4.3,1.5-8.6,0.6-13c0-2.9-0.7-5.7-2.2-8.2
		c-1.3-4-3.6-7.5-6.7-10.5c-4.2-3.8-9-6.6-14.3-8.4c-4.3-1.4-8.6-1.5-13-0.6c-4.3,0.2-8.4,1.5-12.1,3.9
		c-12.1,7.5-24.4,14.8-37.4,20.6c-6.9,2.7-14,4.8-21.3,6.2c-4.1,0.3-8.2,0.4-12.3,0.1c-0.3-0.1-0.5-0.1-0.8-0.2
		c-8.6-1.8-17.3-1.3-25,3.3c-3.8,2-6.8,4.8-9.1,8.4c-2.9,3.1-4.8,6.8-5.8,11.1c-1.9,8.3-1.5,17.7,3.3,25
		c4.4,6.8,11.2,13.2,19.4,14.9c9.1,1.9,18.6,3.1,27.9,2.6c4.1-0.2,8.2-0.6,12.3-1.2c-6.2,16.1-11.8,32.5-16.9,49
		c-3.9-8.1-9.1-15.2-14.8-22.3c-5.7-7.1-12.9-12.7-20.2-18c-7.5-5.5-16-9.2-24.7-12.6c-8.4-3.3-17.4-4.6-26.3-5.4
		c-3.1-0.3-6.2-0.3-9.3,0c-5.6,0.5-11.5,1.2-16.9,2.8c-5.3,1.6-10.5,3.8-15.4,6.4c-5,2.7-9.5,6.4-13.8,10c-3.2,2.9-5.4,6.4-6.7,10.5
		c-2,3.9-3,8-2.8,12.5c-0.2,4.5,0.8,8.6,2.8,12.5c1.3,4,3.6,7.5,6.7,10.5c6.2,5.7,14.3,9.9,23,9.5c2.9-0.4,5.8-0.8,8.6-1.2
		c4.8-1.3,9-3.6,12.6-6.8c0.6-0.4,1.2-0.7,1.8-1c0.9-0.3,1.9-0.5,2.9-0.8c1.7-0.1,3.3,0,5,0c2.8,0.6,5.5,1.4,8.2,2.3
		c3.3,1.6,6.5,3.5,9.5,5.6c2.5,2.2,4.9,4.5,7.1,7.1c2.4,3.6,4.6,7.4,6.4,11.3c2,5.5,3.5,11.1,4.5,16.8c0.6,6.9,0.6,13.8-0.1,20.6
		c-1.3,7.4-3.3,14.6-5.9,21.6c-2.9,6.3-6.4,12.3-10.4,17.9c-4.8,5.7-10.1,11-15.9,15.8c-7.4,5.3-15.2,9.8-23.5,13.6
		c-10.4,4-21.1,6.9-32.1,8.7c-11.1,1.2-22.4,1.2-33.6,0.1c-6.7-1.1-13.3-2.8-19.7-5.1c-3.4-1.6-6.6-3.5-9.7-5.6
		c-2.2-1.9-4.2-4-6.1-6.1c-2.1-3.1-4-6.4-5.7-9.8c-2.1-5.8-3.7-11.8-4.7-17.9c-1-10.4-0.8-20.9,0.3-31.3
		c2.4-15.6,6.6-30.9,12.4-45.6c6.7-15,15.2-29.2,25-42.4c13.3-16.5,28.7-31.2,45.2-44.4c15.7-11.9,32.3-22.5,49.4-32.3
		c18.3-10.4,37.2-19.9,56.3-28.7c10.7-5,21.4-9.7,32.2-14.4c2.2-1.7,4.4-3.4,6.6-5.1c3.2-2.9,5.4-6.4,6.7-10.5
		c1.5-2.5,2.2-5.3,2.2-8.2c1-4.3,0.8-8.6-0.6-13c-1.1-2.6-2.2-5.2-3.3-7.8c-1.7-2.2-3.4-4.4-5.1-6.6c-2.9-3.2-6.4-5.4-10.5-6.7
		c-3.9-2-8-3-12.5-2.8c-9-0.1-17.9-0.8-26.9-1.8c-43.5-6.4-85-21.5-126.9-34.2c-20.5-6.2-41.2-11.7-62.4-15.4
		c-23.2-4-46.9-6.7-70.4-5.4c-14.1,0.8-28.4,2.6-42.1,5.9c-13.9,3.3-27.2,8.5-40,14.7c-3.8,2-6.8,4.8-9.1,8.4
		c-2.9,3.1-4.8,6.8-5.8,11.1c-1.4,4.3-1.5,8.6-0.6,13c0.2,4.3,1.5,8.4,3.9,12.1c4.5,6.9,11.1,13,19.4,14.9c2.9,0.4,5.8,0.8,8.6,1.2
		c5.9,0,11.3-1.5,16.4-4.4c0.9-0.5,1.9-0.9,2.9-1.3c11.3-4.4,23.1-7.5,35.1-9.4c18.6-2,37.3-1.4,55.8,0.8
		c29.5,4.4,58.2,12.6,86.6,21.5c17.1,5.3,34.1,10.9,51.3,15.8c-25.1,14.3-48.9,30.5-71,49.2c-10.9,9.2-21.3,19.2-30.7,30
		c-11.1,12.6-21.4,26.2-30,40.6c-9.6,16.1-17.4,33.5-23.1,51.3c-2.7,8.3-4.9,16.8-6.5,25.3c-2,10.8-3.6,21.7-4.3,32.6
		c-0.5,7.3-0.4,14.6,0.2,21.9c0.2,1.8,0.3,3.6,0.5,5.4c-2.9-2.5-6.1-4.8-9.1-7c-2.5-1.8-5.2-3.4-8-4.7c-5.3-2.4-10.8-4.9-16.5-6.2
		c-8.4-2-17.5-1.1-25,3.3c-3.8,2-6.8,4.8-9.1,8.4c-2.9,3.1-4.8,6.8-5.8,11.1c-1.9,8.3-1.5,17.7,3.3,25c4.5,7,11.1,13,19.4,14.9
		c1.2,0.3,2.3,0.6,3.5,1c1.1,0.6,2.3,1.3,3.3,2c1.4,1.2,2.6,2.5,3.9,3.9c1.6,2.5,3.1,5.1,4.4,7.7c1.5,4.3,2.7,8.7,3.6,13.3
		c0.4,4.9,0.4,9.8,0,14.6c-1.1,5.8-2.7,11.4-4.8,16.9c-3,6.3-6.5,12.2-10.5,17.9c-4.8,5.8-10.2,11.2-16,16
		c-6.2,4.4-12.7,8.2-19.5,11.4c-6.4,2.4-13.1,4.3-19.8,5.5c-5.9,0.5-11.8,0.6-17.7,0.1c-5.4-1-10.8-2.5-16-4.4
		c-5.5-2.6-10.7-5.7-15.7-9.2c-5.3-4.5-10.2-9.4-14.7-14.8c-4.5-6.2-8.3-12.8-11.5-19.8c-2.7-7-4.7-14.3-6-21.6
		c-1-11-0.2-21.9,1.1-32.9c3-19.7,8.1-39,15.5-57.5c7.6-17.1,17.1-33.3,28.3-48.4c11.7-14.7,24.9-28.2,39.2-40.4
		c3.4-2.9,6.8-5.7,10.3-8.4c23.1-17.3,48.2-31.8,74.3-44.1c5.6-2.6,11.2-5.2,16.9-7.6c6.5-2.7,13.1-5.3,19.7-7.8
		c4.2-1,7.9-2.9,11.1-5.8c3.5-2.3,6.3-5.3,8.4-9.1c1.1-2.6,2.2-5.2,3.3-7.8c1.4-4.3,1.5-8.6,0.6-13c0-2.9-0.7-5.7-2.2-8.2
		c-1.3-4-3.6-7.5-6.7-10.5c-6.3-5.8-14.2-9.7-23-9.5c-14,0.2-27.9-0.5-41.8-2.2c-24-3.6-47.6-10.1-70.2-19.2
		c-27.5-12-53.5-27.2-81.2-38.9c-14.3-6-28.7-11.4-43.9-14.5c-15.8-3.2-32.3-5.2-48.5-3.8c-10.1,0.9-20.3,2.2-30,5.2
		c-6,1.8-11.8,4.4-17.6,6.9c-3.6,1.6-7,3.4-10.4,5.4c-7.1,4.2-12.7,11.4-14.9,19.4c-1.4,4.3-1.5,8.6-0.6,13
		c0.2,4.3,1.5,8.4,3.9,12.1c4.5,6.9,11.1,13,19.4,14.9c8.5,1.9,17.4,1.3,25-3.3c2.4-1.4,4.9-2.8,7.4-4c5.5-2,11.1-3.5,16.8-4.5
		c8.6-0.8,17.2-0.6,25.7,0.2c14.6,2.4,28.6,6.8,42.3,12.3c24.7,10.8,48.1,24.4,72.8,35.3c12.3,5.4,24.7,10.4,37.4,14.5
		c-6.1,3.8-12.1,7.8-18,11.9c-21.9,15.5-42.8,32.7-60.7,52.7c-19,21.2-35.7,44.9-47.6,70.8c-6.9,14.9-12.9,30.3-17.2,46.1
		c-4.7,17.2-7.4,34.8-9.2,52.5c-0.8,7.6-1.3,15.2-0.9,22.8c0.5,10.1,1.9,20.4,4.4,30.2c2.4,9.8,6.3,19.1,10.4,28.3
		c3,6.7,6.7,13.1,10.8,19.2c5.6,8.1,11.7,15.9,18.7,22.9c7,7,14.9,13.2,23.1,18.7c8.3,5.6,17.4,9.5,26.6,13.2
		c6.8,2.7,13.9,4.6,21.1,5.7c10.2,1.5,20.1,2.7,30.4,1.9c10-0.8,20.2-2.3,30-5.1c9.5-2.8,18.9-6.7,27.7-11.2
		c6.6-3.3,12.9-7.3,18.8-11.8c8.1-6.1,15.9-12.4,22.7-19.9c6.8-7.4,13-15.5,18.3-24c5.2-8.5,9.3-17.7,12.8-27
		c3.1-8.3,4.8-16.7,6-25.4c1-7.4,1.6-14.6,1.1-22c7.3,7,15.8,13.3,24.9,17.7c9.3,4.5,19,8.3,29.1,10.5c10.3,2.3,21,3.6,31.6,4.2
		c7.3,0.4,14.7,0.3,22-0.4c17.5-1.5,35-4.5,51.4-10.8c9.3-3.5,18.6-7.5,27.3-12.3c8.7-4.9,16.6-10.8,24.4-17
		c0.2-0.2,0.5-0.4,0.7-0.6c-4.3,27.3-7.8,54.7-10.4,82.1c-2.1,22.3-3.7,44.8-3.8,67.2c0,6.3,0.7,12.5,1.8,18.7
		c0.3,1.6,0.6,3.2,1.1,4.8c1.1,3.3,2.6,6.6,4,9.7c0.4,0.8,0.8,1.7,1.3,2.5c4.9,8.1,11.8,14.4,21,16.9c6.3,1.8,11.9,1.4,18.3,0
		c4.1-0.9,7.9-2.9,11.6-4.7c2.1-1,4.1-2.2,6.1-3.4c14.5-8.7,28.2-19.1,41.7-29.3c21.6-16.2,42.8-32.9,63.8-49.8
		c19.4-15.7,38.6-31.6,57.5-47.9c3.3-2.8,6.5-5.7,9.8-8.5c-1.2,4.4-2.4,8.8-3.7,13.2c-9.7,35.1-19.5,70.1-29.2,105.2
		c-0.7,2.7-1.1,5.6-1.1,8.4c-7.3,2-14.5,4.1-21.8,6.2c-13,3.8-26.1,7.6-39.1,11.6c-4.2,1-7.9,2.9-11.1,5.8c-3.5,2.3-6.3,5.3-8.4,9.1
		c-2.4,3.7-3.7,7.8-3.9,12.1c-1,4.3-0.8,8.6,0.6,13c1.1,2.6,2.2,5.2,3.3,7.8c2.9,4.9,6.8,8.8,11.7,11.7c2.6,1.1,5.2,2.2,7.8,3.3
		c5.8,1.5,11.5,1.5,17.3,0c23.2-7,46.4-13.8,69.8-20.3c23.3-6.5,46.8-12.6,70.3-18.5c13.2-3.3,26.4-6.5,39.6-9.6
		c4.2-1,7.9-2.9,11.1-5.8c3.5-2.3,6.3-5.3,8.4-9.1c2.4-3.7,3.7-7.8,3.9-12.1c1-4.3,0.8-8.6-0.6-13c-1.1-2.6-2.2-5.2-3.3-7.8
		c-2.9-4.9-6.8-8.8-11.7-11.7c-2.6-1.1-5.2-2.2-7.8-3.3c-5.8-1.5-11.5-1.5-17.3,0c-15.8,3.7-31.5,7.6-47.2,11.6
		c7.3-26.4,14.7-52.9,22-79.3c9.9-35.8,19.8-71.5,29.7-107.3c9.9-35.8,19.8-71.5,29.6-107.3c0.1-0.4,0.2-0.7,0.3-1.1
		c10.2,0.2,20.3,0.9,30.4,2.1c28.1,4.2,55.5,12.2,81.8,22.9c34.7,15.1,67.4,34.6,98.3,56.4c7.9,5.6,15.8,11.4,23.5,17.3
		c45.8,35.7,87.8,75.9,130.8,114.9c45.2,41,91.9,81.2,143.8,113.7c29.8,18.6,61.4,34.2,94.3,46.3c7.5,2.8,18.3,0.6,25-3.3
		c6.7-3.9,13.2-11.7,14.9-19.4c1.9-8.3,1.5-17.7-3.3-25c-1.7-2.2-3.4-4.4-5.1-6.6c-4.1-4-8.8-6.8-14.3-8.4
		c-4.8-1.8-9.6-3.6-14.3-5.5c-33-14.3-64.1-32.7-93.5-53.5c-7.3-5.2-14.6-10.5-21.7-16c-28.5-22.2-55.5-46-82.2-70.3
		c-27.5-25-54.6-50.5-82.6-74.9c-30.1-26.2-61.4-51.2-94.4-73.6c-0.1-0.1-0.3-0.2-0.4-0.3c1.6-1.1,3.1-2.4,4.6-3.8
		c1.7-2.2,3.4-4.4,5.1-6.6c2.9-5.1,4.4-10.5,4.4-16.4c2.5-20.6,5-41.1,7.5-61.7c1.1-9.1,2.2-18.3,3.3-27.4
		c11.4,12.1,22.4,24.6,33.2,37.3c12,14.1,23.8,28.3,35.7,42.5c11.9,14.1,23.9,28.2,36.4,41.8c12.5,13.6,25.4,26.7,39.1,39.1
		c1.7,1.5,3.4,3,5.1,4.5c2.2,1.7,4.4,3.4,6.6,5.1c3.7,2.4,7.8,3.7,12.1,3.9c2.9,0.8,5.8,0.8,8.6,0c4.3-0.2,8.4-1.5,12.1-3.9
		c2.2-1.7,4.4-3.4,6.6-5.1c0.5-0.7,1.1-1.4,1.6-2.1c-0.1,3.7-0.1,7.3,0.1,11c0.3,10,1.5,19.9,3,29.9c1.1,7.2,2.7,14.2,5,21.1
		c3,9,6.7,17.9,11.3,26.2c4.3,7.6,9.6,14.6,15.1,21.4c9.4,11.6,21.2,21.1,33.5,29.4c12.5,8.4,26.4,14.7,40.5,20
		c12.1,4.5,24.6,7.8,37.4,9.6c9.7,1.4,19.3,2.7,29.1,2.1c6.3-0.4,12.6-1.2,18.8-2.5c3.3-0.7,6.6-1.6,9.7-2.9
		c5.7-2.3,11.6-4.6,16.8-8c5-3.2,9.7-6.9,14.1-10.9c7.1-6.4,12.9-14.2,18.7-21.8c8.4-11,16.1-22.6,22.5-34.9c-0.4,8-0.8,16-1.2,24
		c-0.4,8.6-0.7,17.2-0.9,25.8c-0.2,6.4-0.3,12.9-0.9,19.3c-0.6,3-1.3,5.9-2.2,8.8c0,0,0,0,0,0c-3,0.4-5.9,0.8-8.9,1.2
		c-4.5-0.2-8.6,0.8-12.5,2.8c-4,1.3-7.5,3.6-10.5,6.7c-1.7,2.2-3.4,4.4-5.1,6.6c-2.4,3.7-3.7,7.8-3.9,12.1c-0.8,2.9-0.8,5.8,0,8.6
		c0.2,4.3,1.5,8.4,3.9,12.1c1.7,2.2,3.4,4.4,5.1,6.6c4.1,4,8.8,6.8,14.3,8.4c1.6,0.6,3.2,1.1,5,1.4c4.3,0.7,8.9,1.6,13.3,1.4
		c6.1-0.3,12.5-1.1,18.2-3.5c2.2-0.9,4.4-1.7,6.5-2.7c23.4-3.1,46.7-6.1,70.1-9.2c10-1.3,19.9-2.6,29.9-3.9
		c4.5,0.2,8.6-0.8,12.5-2.8c4-1.3,7.5-3.6,10.5-6.7c5.6-5.6,9.9-14.9,9.5-23c-0.4-8.4-3.1-17.1-9.5-23c-2.2-1.7-4.4-3.4-6.6-5.1
		c-5.1-2.9-10.5-4.4-16.4-4.4c-19.5,2.5-38.9,5.1-58.4,7.6c0.5-6.2,0.8-12.5,1-18.8c0.9-34.8,2.9-69.5,5.9-104.2
		c6.9,0.6,13.9,0.8,20.8,0.4c6.1-0.3,12-1,18-1.8c5.9-0.8,11.8-1.6,17.6-2.9c5.2-1.1,10.3-2.6,15.3-4.2c4.2-1,7.9-2.9,11.1-5.8
		c3.5-2.3,6.3-5.3,8.4-9.1c2.4-3.7,3.7-7.8,3.9-12.1c1-4.3,0.8-8.6-0.6-13c-1.1-2.6-2.2-5.2-3.3-7.8c-2.9-4.9-6.8-8.8-11.7-11.7
		c-2.6-1.1-5.2-2.2-7.8-3.3c-5.8-1.5-11.5-1.5-17.3,0c-7.8,2.6-15.9,4.5-24,5.9c-7.8,0.8-15.7,1.1-23.6,0.7c0.4-3.3,0.8-6.5,1.3-9.8
		c2.9-20.8,6.1-41.6,9.7-62.3c5.8-10.8,11.6-21.5,17.3-32.3c7.5-13.9,14.7-28,22.9-41.5c3.7-6.2,7.7-12.2,12-18
		c5.1-6.2,10.6-12.1,16.8-17.2c4.6-3.3,9.5-6.2,14.7-8.6c4-1.5,8.2-2.7,12.4-3.5c2.9-0.2,5.9-0.2,8.8,0c2.5,0.5,4.9,1.2,7.3,2
		c2.6,1.3,5.2,2.8,7.6,4.5c3.2,2.8,6.1,5.8,8.9,9c3.3,4.7,6.2,9.7,8.6,14.9c3.3,8.7,5.5,17.7,7,26.9c-3.3,2.3-6.6,4.5-9.9,6.6
		c-7.1,4.6-12.7,11.1-14.9,19.4c-1.4,4.3-1.5,8.6-0.6,13c0.2,4.3,1.5,8.4,3.9,12.1c4.5,6.9,11.1,13,19.4,14.9
		c5.6,1.3,11.6,1.5,17.2,0.1c2.3,1.8,4.8,3.2,7.6,4.1c3.9,2,8,3,12.5,2.8c2.9-0.4,5.8-0.8,8.6-1.2c1.4-0.4,2.8-0.9,4.1-1.5
		c-1.5,6.3-2.9,12.6-4.3,18.9c-6,26.9-11.5,53.8-16.3,80.9c-5.2,29.6-9.6,59.4-12.9,89.3c-3,27.1-5.1,54.4-5.9,81.7
		c-0.1,3.5-0.2,6.9-0.3,10.4c0.4,2.9,0.8,5.8,1.2,8.6c1,4.2,2.9,7.9,5.8,11.1c1.4,2.4,3.4,4.4,5.8,5.8c3.1,2.9,6.8,4.8,11.1,5.8
		c1.7,0.7,3.5,1.2,5.3,1.5c4.4,0.8,8.9,1.6,13.4,1.6c6.3,0.1,12.8-0.9,18.8-2.6c6.1-1.7,12.1-4.4,17.8-7.1c3.5-1.7,7-3.6,10.3-5.6
		c14.8-8.9,29.2-18.4,43.8-27.6c29.7-18.8,59.4-37.5,89.2-56.3c16.8-10.6,33.6-21.2,50.4-31.8c7.1-4.5,12.7-11.3,14.9-19.4
		C3471.4,526.6,3471.5,522.3,3470.6,518z M2031,337c6.8-2.6,13.8-4.5,20.9-5.8c5.4-0.5,10.8-0.6,16.2-0.2c3.1,0.6,6.2,1.4,9.2,2.4
		c1.5,0.8,3,1.6,4.4,2.5c0.4,0.4,0.9,0.8,1.3,1.3c0.1,0.1,0.2,0.3,0.2,0.4c0.1,0.2,0.1,0.4,0.2,0.6c0,0.6,0,1.2,0,1.8
		c-0.5,2-1.1,4-1.7,5.9c-4.7,9.6-11,18.3-17.4,26.8c-7.1,9.2-14.8,17.9-23.7,25.4c-6.3,4.5-13,8.3-20,11.6c-9,3.4-18.2,5.9-27.7,7.5
		c-8.1,0.8-16.3,1-24.5,0.5c0.2-0.6,0.4-1.2,0.6-1.8c1.8-6.7,4-13.2,6.6-19.7c4.6-10.1,10.1-19.8,16.7-28.7
		c5.5-6.7,11.6-12.9,18.3-18.4C2016.9,344.4,2023.8,340.4,2031,337z M2341.2,357.2c-14.2-5.7-28.6-10.5-43.3-14.3
		c10.2-6.2,20-12.8,29.5-20c12-9.1,23.8-18.5,34.8-28.8c18.8-17.6,35.6-37.3,50.6-58.1c-2.2,17.9-4.4,35.8-6.5,53.7
		c-2.5,20.6-5,41.1-7.5,61.7c-1.3,10.3-2.5,20.6-3.8,31C2377.5,373,2359.7,364.6,2341.2,357.2z M2676.3,378.3
		c-2.3,12.8-4.1,25.8-5.6,38.7c-3.3-13.6-6.1-27.4-8.3-41.3c-0.6-3.9-1.2-7.9-1.8-11.9c-1.8-14.6-3.1-29.2-3.8-43.9
		c-0.3-5.8-0.5-11.5-0.6-17.3c0.7,0.3,1.4,0.6,2.1,0.9c5.8,1.5,11.5,1.5,17.3,0c7.8-1.5,15.5-3.2,23.2-5.1c-0.1,0.3-0.2,0.5-0.3,0.8
		C2688.1,324.6,2681.1,351.3,2676.3,378.3z M3331.2,309.1c4.6-5.6,9.7-10.9,15.3-15.6c4.1-2.9,8.4-5.4,12.9-7.6
		c3.9-1.4,7.9-2.5,12-3.3c2.9-0.2,5.9-0.2,8.8,0c2.1,0.4,4.2,1,6.2,1.7c1.9,1,3.7,2,5.4,3.2c1.4,1.3,2.8,2.6,4.1,4.1
		c0.8,1.2,1.6,2.5,2.3,3.8c0.3,1,0.6,1.9,0.8,2.9c0,1.2,0,2.4,0,3.6c-0.7,3.2-1.7,6.3-2.8,9.4c-3.2,6.8-6.9,13.4-10.8,19.9
		c-4.4,7.4-9.1,14.6-14,21.6c-2,2.8-4,5.5-6,8.2c-13,16.4-27.5,31.6-43.3,45.3c-4.1,3.6-8.4,7-12.7,10.4c-6.7,5.1-13.7,10-21.2,14
		c0.3-4.3,0.7-8.5,1.2-12.8c2.7-18.6,7.3-36.9,13.6-54.6c1.4-3.8,2.8-7.6,4.3-11.4c5.4-12.4,11.7-24.6,19.1-35.9
		C3327.9,313.6,3329.5,311.3,3331.2,309.1z"/>
	<path d="M2671.7,164.4c0.9,3.5,2.9,7.5,4.2,10.3c0.4,0.9,0.9,1.9,1.4,2.7c1.9,3,4.2,5.8,6.5,8.5c0.7,0.8,1.3,1.5,2.1,2.2
		c3.3,3.1,7,6.1,11,8.4c0.8,0.5,1.6,0.9,2.5,1.3c3.4,1.5,6.8,3.1,10.4,4.3c4.6,1.5,9.6,1.9,14.3,2.5c2.1,0.3,4.1,0.3,6.2,0.1
		c4-0.3,7.9-0.9,11.8-1.6c1.3-0.2,2.5-0.5,3.7-0.8c4.9-1.3,9.6-3.5,14.2-5.6c4.5-2,8.7-4.5,12.7-7.3c5.8-4.1,11.4-8.4,16.8-13.1
		c6.5-5.7,12.5-12,17.8-18.8c7.1-9,13.8-18.1,19.5-28.1c4.4-7.7,8.3-15.6,11.8-23.7c4.6-10.7,8.9-21.4,12.7-32.5
		c2.9-8.5,5.5-17.1,7.9-25.8c0.6-2.1,1.2-4.2,1.7-6.4c1.4-4.3,1.5-8.6,0.6-13c-0.2-4.3-1.5-8.4-3.9-12.1c-2-3.8-4.8-6.8-8.4-9.1
		c-3.1-2.9-6.8-4.8-11.1-5.8c-2.9-0.4-5.8-0.8-8.6-1.2c-5.9,0-11.3,1.5-16.4,4.4c-2.2,1.7-4.4,3.4-6.6,5.1c-4,4.1-6.8,8.8-8.4,14.3
		c-3.9,14.5-8.2,28.8-13.4,42.9c-1.1,2.9-2.2,5.7-3.3,8.6c-5,11.2-10.7,22.1-17.5,32.3c-0.7,1-1.3,1.9-2,2.9c-1.4-2.5-3.2-4.8-5.3-7
		c-2.2-1.7-4.4-3.4-6.6-5.1c-5.1-2.9-10.5-4.4-16.4-4.4c-2.3-0.2-4.6-0.3-6.9-0.1c-3.8,0.4-7.6,0.9-11.4,1.5
		c-1.2,0.2-2.3,0.5-3.4,0.8c-1.1,0.3-2.1,0.7-3.1,1.1c-3.5,1.5-7.2,2.8-10.6,4.6c-4.2,2.4-8.1,5.5-11.6,8.7c-0.7,0.7-1.4,1.4-2,2.2
		c-2.4,2.9-4.8,5.8-6.8,9c-2.5,4.1-4.4,8.7-5.8,13.2c-0.3,1-0.6,2-0.8,3.1c-0.7,3.8-1.3,7.7-1.5,11.6c0,1,0,2,0.1,3
		C2670.4,156.6,2670.7,160.6,2671.7,164.4z"/>
</g>
</svg>
